<?xml version="1.0" encoding="utf-8"?>
<!-- Generator: Adobe Illustrator 17.1.0, SVG Export Plug-In . SVG Version: 6.00 Build 0)  -->
<!DOCTYPE svg PUBLIC "-//W3C//DTD SVG 1.1//EN" "http://www.w3.org/Graphics/SVG/1.1/DTD/svg11.dtd">
<svg version="1.1" id="Layer_1" xmlns="http://www.w3.org/2000/svg" xmlns:xlink="http://www.w3.org/1999/xlink" x="0px" y="0px"
	 viewBox="0 0 512 512" enable-background="new 0 0 512 512" xml:space="preserve">
<path fill="url(#SVGID_1_)" d="M322.3,325.9c-6.6-8.2-21.8-19.4-13.4-31.1c4.6-6.4,15.6-5.3,18.1-14.1c0.1-0.4,0.2-0.8,0.3-1.2
	c0.6-3.3-0.4-6.7-2.3-9.4c-0.1-0.1-0.2-0.3-0.3-0.5c-6-10.8-20-14.3-29.9-6.8c-8.2,6.1-10.7,13.7-10.7,13.7
	c-0.8-7.4-4.2-12.5-7.5-15.9c-3.8-3.9-10.4-3.5-13.6,1c-9,13-3.9,29-2.7,43.4c0.1,1.1,0.1,2.3,0.2,3.4
	c16.3-13.2,41.7-11.8,41.7-11.8c-21.3,5.5-37.9,22.3-44.1,29.4c-2.5,9.3-6.3,18.3-8.9,27.7c-8.6,30.5-1.8,63,5,94
	c1.7-20.9,18.5-38.1,37.6-46.8c5.9-2.7,11.8-5.8,17.7-8.5c1.3-0.6,2.5-1.2,3.8-1.7c9.1-4,18-8.8,19-19.2
	C333.7,355.8,332.4,338.4,322.3,325.9z"/>
<g>
	<path fill="url(#SVGID_2_)" d="M234,444.5c-28.1-17.4-46.9-48.5-46.9-84c0-9.5,1.4-18.7,3.9-27.4c-2.2-0.3-4.3-1-6.2-2
		c-2.7,9.4-4.2,19.2-4.2,29.5c0,39.1,21.4,73.2,53.1,91.4C233.8,449.4,233.9,446.9,234,444.5z"/>
	<path fill="url(#SVGID_3_)" d="M333.4,266.6c-0.3,0.9-0.6,1.8-0.9,2.6c-0.4,0.9-0.8,1.7-1.2,2.6c-0.1,0.3-0.3,0.5-0.4,0.8
		c31.9,16.4,53.7,49.6,53.7,87.9c0,35.9-19.2,67.4-47.9,84.7c-1,4.1-2.9,7.4-5.3,10.2c35.3-17,59.7-53.1,59.7-94.9
		C391.1,319.5,367.6,284,333.4,266.6z"/>
</g>
<path fill="url(#SVGID_4_)" d="M342.8,248.4c-8.2-7.6-36.8-13.7-36.8-13.7l0,0c-0.2-1-0.5-2.1-0.5-3.2c0.1-2.8,1-5.6,2.7-7.9
	c3.6-4.6,9.6-6.3,13.3-10.7c4.5-5.4,1.8-11.2,4.4-17.1c0.6-1.3,1.3-2.5,1.8-3.8c1.8-4.4,1.6-10.2,1.4-14.9c-0.1-3.2-1.6-5.9-2.7-8.8
	c-1.3-3.4-1.3-6.4-2.1-9.8c-1.1-4.7-6-9.8-9.3-13.1c-5.4-5.5-10.2-1.2-16.4-3.9c-0.5-0.2-1-0.5-1.5-0.7c-5-1.7-12.5,2.4-17,4.3
	c-4.8,2-8.9,5.4-12.2,9.3c-0.7,0.9-1.4,1.8-2.1,2.7c-2.2,2.9-4.4,5.5-8.5,5.8c-2.8,0.2-5.7,0.2-7.9,1.9c-2.1,1.6-3,4.4-3.7,7
	c-0.5,1.8-1,3.7-1.5,5.5c-1.3,4.6-3.8,6.3-8.5,6c-3.2-0.2-6.5,0.4-9.1,2.3c-2.6,1.9-4.2,5.2-3.5,8.3c0.5,2.1,1.9,3.9,3.3,5.6
	c2.8,3.4,6,7.1,6,11.5c0,2.8-1.4,5.6-3.7,7.3c-2.3,1.7-5.3,2.2-8,1.3c-2.7-0.9-5.3-3.3-7.2-4.9c-1.4-1.1-3.3-1.3-5-1.4
	c-4.2-0.3-9.3,1.3-11.3,5.4c-0.7,1.4-1.4,2.7-1.9,4.1c-1,3-0.4,5.3,0.5,8.2c0.9,2.8,3,4.5,3.9,7.3c0.7,1.9,0.2,4.4-1.6,5.3
	c-0.7,0.4-1.5,0.5-2.3,0.5c-1.9,0.1-3.9-0.3-5.2-1.6c-1.3-1.3-1.5-3.8,0-4.9c-3.3,1.4-4.2,6.3-2.2,9.3c2,3,6,4.3,9.6,4
	c2.7-0.2,5.4-1.2,7.3-3.1c1.9-1.9,3-4.8,2.3-7.4c-0.5-2.2-2.1-3.9-3-6c-1-2-1.2-4.7,0.4-6.2c0.5-0.5,1.2-0.7,1.9-0.9
	c3.2-0.8,6.2,0.6,7.9,3.5c1.8,3.1,3.5,6.3,5.4,9.5c1.3,2.2,3.1,3.6,5.3,5c3.6,2.2,8.1,2.9,12.2,2.5c2.4-0.2,4.3-1,5.9-2
	c-5.6,48.7,2.3,71.6,2.3,71.6c24.8-24.3,56.7-25.8,56.7-25.8c-29.6-6.4-53.7,15.9-53.7,15.9c-6.7-28.8,0-68.4,0-68.4l0,0
	c0.5-1.1,1-2.2,1.5-3.3c1.8-4.3,6.4-5.5,10.6-5.4c6.9,0.2,14.1,3,20.1,6.2c3.4-3.4,4-10.6,3.9-16.1c-12.9-11.2-13.3-29-9.8-44.4
	c1.4-6.2,10.3-6.2,14.6-2.1c1.8,1.7,2.5,4.2,3,6.6c0.9,3.9,2,8.5,5.8,10c1.6,0.7,3.4,0.6,5.2,0.8c3.9,0.5,7.5,2.9,9.5,6.2
	c5.9,9.4-4,20-12.1,24.3c-1.2,11.1,3.3,15.9,3.3,15.9c0,0,26,4.2,35.4,15.1c9.3,10.9,27.5,53.5,27.5,55.2
	c0,13.1-31.5,32.9-31.5,32.9c32.9-16,38.3-32.1,38.3-32.1S350.9,256,342.8,248.4z"/>
</svg>
